<mxfile host="Electron" agent="Mozilla/5.0 (Windows NT 10.0; Win64; x64) AppleWebKit/537.36 (KHTML, like Gecko) draw.io/25.0.2 Chrome/128.0.6613.186 Electron/32.2.5 Safari/537.36" version="25.0.2">
  <diagram name="Page-1" id="WAdvCssFZvqovlDKqAOe">
    <mxGraphModel dx="1066" dy="410" grid="1" gridSize="10" guides="1" tooltips="1" connect="1" arrows="1" fold="1" page="1" pageScale="1" pageWidth="827" pageHeight="1169" math="0" shadow="0">
      <root>
        <mxCell id="0" />
        <mxCell id="1" parent="0" />
        <mxCell id="bXwxF1vJaj6NDqh2uWlh-46" value="" style="rounded=0;whiteSpace=wrap;html=1;" vertex="1" parent="1">
          <mxGeometry x="70" y="320" width="490" height="250" as="geometry" />
        </mxCell>
        <mxCell id="bXwxF1vJaj6NDqh2uWlh-4" value="&lt;i&gt;N2&lt;/i&gt;" style="ellipse;whiteSpace=wrap;html=1;aspect=fixed;" vertex="1" parent="1">
          <mxGeometry x="510" y="360" width="40" height="40" as="geometry" />
        </mxCell>
        <mxCell id="bXwxF1vJaj6NDqh2uWlh-3" value="&lt;i&gt;N1&lt;/i&gt;" style="ellipse;whiteSpace=wrap;html=1;aspect=fixed;" vertex="1" parent="1">
          <mxGeometry x="430" y="360" width="40" height="40" as="geometry" />
        </mxCell>
        <mxCell id="bXwxF1vJaj6NDqh2uWlh-21" value="" style="rounded=0;whiteSpace=wrap;html=1;" vertex="1" parent="1">
          <mxGeometry x="80" y="400" width="40" height="40" as="geometry" />
        </mxCell>
        <mxCell id="bXwxF1vJaj6NDqh2uWlh-22" value="" style="rounded=0;whiteSpace=wrap;html=1;" vertex="1" parent="1">
          <mxGeometry x="120" y="400" width="40" height="40" as="geometry" />
        </mxCell>
        <mxCell id="bXwxF1vJaj6NDqh2uWlh-23" value="" style="rounded=0;whiteSpace=wrap;html=1;" vertex="1" parent="1">
          <mxGeometry x="160" y="400" width="40" height="40" as="geometry" />
        </mxCell>
        <mxCell id="bXwxF1vJaj6NDqh2uWlh-24" value="" style="rounded=0;whiteSpace=wrap;html=1;" vertex="1" parent="1">
          <mxGeometry x="80" y="440" width="40" height="40" as="geometry" />
        </mxCell>
        <mxCell id="bXwxF1vJaj6NDqh2uWlh-25" value="" style="rounded=0;whiteSpace=wrap;html=1;" vertex="1" parent="1">
          <mxGeometry x="120" y="440" width="40" height="40" as="geometry" />
        </mxCell>
        <mxCell id="bXwxF1vJaj6NDqh2uWlh-26" value="" style="rounded=0;whiteSpace=wrap;html=1;" vertex="1" parent="1">
          <mxGeometry x="160" y="440" width="40" height="40" as="geometry" />
        </mxCell>
        <mxCell id="bXwxF1vJaj6NDqh2uWlh-27" value="" style="rounded=0;whiteSpace=wrap;html=1;" vertex="1" parent="1">
          <mxGeometry x="80" y="480" width="40" height="40" as="geometry" />
        </mxCell>
        <mxCell id="bXwxF1vJaj6NDqh2uWlh-28" value="" style="rounded=0;whiteSpace=wrap;html=1;" vertex="1" parent="1">
          <mxGeometry x="120" y="480" width="40" height="40" as="geometry" />
        </mxCell>
        <mxCell id="bXwxF1vJaj6NDqh2uWlh-29" value="" style="rounded=0;whiteSpace=wrap;html=1;" vertex="1" parent="1">
          <mxGeometry x="160" y="480" width="40" height="40" as="geometry" />
        </mxCell>
        <mxCell id="bXwxF1vJaj6NDqh2uWlh-33" value="" style="endArrow=classic;html=1;rounded=0;entryX=0;entryY=0.5;entryDx=0;entryDy=0;opacity=10;" edge="1" parent="1" target="bXwxF1vJaj6NDqh2uWlh-2">
          <mxGeometry width="50" height="50" relative="1" as="geometry">
            <mxPoint x="100" y="420" as="sourcePoint" />
            <mxPoint x="390" y="440" as="targetPoint" />
          </mxGeometry>
        </mxCell>
        <mxCell id="bXwxF1vJaj6NDqh2uWlh-36" value="" style="endArrow=classic;html=1;rounded=0;opacity=10;entryX=0;entryY=0.5;entryDx=0;entryDy=0;" edge="1" parent="1" target="bXwxF1vJaj6NDqh2uWlh-2">
          <mxGeometry width="50" height="50" relative="1" as="geometry">
            <mxPoint x="140" y="420" as="sourcePoint" />
            <mxPoint x="300" y="380" as="targetPoint" />
          </mxGeometry>
        </mxCell>
        <mxCell id="bXwxF1vJaj6NDqh2uWlh-37" value="" style="endArrow=classic;html=1;rounded=0;opacity=10;entryX=0;entryY=0.5;entryDx=0;entryDy=0;" edge="1" parent="1" target="bXwxF1vJaj6NDqh2uWlh-2">
          <mxGeometry width="50" height="50" relative="1" as="geometry">
            <mxPoint x="180" y="420" as="sourcePoint" />
            <mxPoint x="300" y="380" as="targetPoint" />
          </mxGeometry>
        </mxCell>
        <mxCell id="bXwxF1vJaj6NDqh2uWlh-38" value="" style="endArrow=classic;html=1;rounded=0;entryX=0;entryY=0.5;entryDx=0;entryDy=0;opacity=10;" edge="1" parent="1" target="bXwxF1vJaj6NDqh2uWlh-2">
          <mxGeometry width="50" height="50" relative="1" as="geometry">
            <mxPoint x="100" y="460" as="sourcePoint" />
            <mxPoint x="310" y="390" as="targetPoint" />
          </mxGeometry>
        </mxCell>
        <mxCell id="bXwxF1vJaj6NDqh2uWlh-39" value="" style="endArrow=classic;html=1;rounded=0;opacity=10;entryX=0;entryY=0.5;entryDx=0;entryDy=0;" edge="1" parent="1" target="bXwxF1vJaj6NDqh2uWlh-2">
          <mxGeometry width="50" height="50" relative="1" as="geometry">
            <mxPoint x="140" y="460" as="sourcePoint" />
            <mxPoint x="300" y="380" as="targetPoint" />
          </mxGeometry>
        </mxCell>
        <mxCell id="bXwxF1vJaj6NDqh2uWlh-40" value="" style="endArrow=classic;html=1;rounded=0;opacity=10;entryX=0;entryY=0.5;entryDx=0;entryDy=0;" edge="1" parent="1" target="bXwxF1vJaj6NDqh2uWlh-2">
          <mxGeometry width="50" height="50" relative="1" as="geometry">
            <mxPoint x="180" y="460" as="sourcePoint" />
            <mxPoint x="300" y="380" as="targetPoint" />
          </mxGeometry>
        </mxCell>
        <mxCell id="bXwxF1vJaj6NDqh2uWlh-41" value="" style="endArrow=classic;html=1;rounded=0;opacity=10;entryX=0;entryY=0.5;entryDx=0;entryDy=0;" edge="1" parent="1" target="bXwxF1vJaj6NDqh2uWlh-2">
          <mxGeometry width="50" height="50" relative="1" as="geometry">
            <mxPoint x="100" y="500" as="sourcePoint" />
            <mxPoint x="300" y="380" as="targetPoint" />
          </mxGeometry>
        </mxCell>
        <mxCell id="bXwxF1vJaj6NDqh2uWlh-42" value="" style="endArrow=classic;html=1;rounded=0;entryX=0;entryY=0.5;entryDx=0;entryDy=0;opacity=10;" edge="1" parent="1" target="bXwxF1vJaj6NDqh2uWlh-2">
          <mxGeometry width="50" height="50" relative="1" as="geometry">
            <mxPoint x="140" y="500" as="sourcePoint" />
            <mxPoint x="350" y="430" as="targetPoint" />
          </mxGeometry>
        </mxCell>
        <mxCell id="bXwxF1vJaj6NDqh2uWlh-43" value="" style="endArrow=classic;html=1;rounded=0;entryX=0;entryY=0.5;entryDx=0;entryDy=0;opacity=10;" edge="1" parent="1" target="bXwxF1vJaj6NDqh2uWlh-2">
          <mxGeometry width="50" height="50" relative="1" as="geometry">
            <mxPoint x="180" y="500" as="sourcePoint" />
            <mxPoint x="360" y="440" as="targetPoint" />
          </mxGeometry>
        </mxCell>
        <mxCell id="bXwxF1vJaj6NDqh2uWlh-47" value="Input Frame" style="text;html=1;align=center;verticalAlign=bottom;whiteSpace=wrap;rounded=0;" vertex="1" parent="1">
          <mxGeometry x="100" y="320" width="80" height="30" as="geometry" />
        </mxCell>
        <mxCell id="bXwxF1vJaj6NDqh2uWlh-48" value="Synapses" style="text;html=1;align=center;verticalAlign=bottom;whiteSpace=wrap;rounded=0;" vertex="1" parent="1">
          <mxGeometry x="210" y="320" width="120" height="30" as="geometry" />
        </mxCell>
        <mxCell id="bXwxF1vJaj6NDqh2uWlh-49" value="Neurons" style="text;html=1;align=center;verticalAlign=bottom;whiteSpace=wrap;rounded=0;" vertex="1" parent="1">
          <mxGeometry x="410" y="320" width="80" height="30" as="geometry" />
        </mxCell>
        <mxCell id="bXwxF1vJaj6NDqh2uWlh-2" value="&lt;i&gt;N0&lt;/i&gt;" style="ellipse;whiteSpace=wrap;html=1;aspect=fixed;" vertex="1" parent="1">
          <mxGeometry x="350" y="360" width="40" height="40" as="geometry" />
        </mxCell>
        <mxCell id="bXwxF1vJaj6NDqh2uWlh-14" value="&lt;i&gt;N3&lt;/i&gt;" style="ellipse;whiteSpace=wrap;html=1;aspect=fixed;" vertex="1" parent="1">
          <mxGeometry x="350" y="440" width="40" height="40" as="geometry" />
        </mxCell>
        <mxCell id="bXwxF1vJaj6NDqh2uWlh-15" value="&lt;i&gt;N4&lt;/i&gt;" style="ellipse;whiteSpace=wrap;html=1;aspect=fixed;" vertex="1" parent="1">
          <mxGeometry x="430" y="440" width="40" height="40" as="geometry" />
        </mxCell>
        <mxCell id="bXwxF1vJaj6NDqh2uWlh-16" value="&lt;i style=&quot;&quot;&gt;N5&lt;/i&gt;" style="ellipse;whiteSpace=wrap;html=1;aspect=fixed;" vertex="1" parent="1">
          <mxGeometry x="510" y="440" width="40" height="40" as="geometry" />
        </mxCell>
        <mxCell id="bXwxF1vJaj6NDqh2uWlh-17" value="&lt;i&gt;N6&lt;/i&gt;" style="ellipse;whiteSpace=wrap;html=1;aspect=fixed;" vertex="1" parent="1">
          <mxGeometry x="350" y="520" width="40" height="40" as="geometry" />
        </mxCell>
        <mxCell id="bXwxF1vJaj6NDqh2uWlh-18" value="&lt;i&gt;N7&lt;/i&gt;" style="ellipse;whiteSpace=wrap;html=1;aspect=fixed;" vertex="1" parent="1">
          <mxGeometry x="430" y="520" width="40" height="40" as="geometry" />
        </mxCell>
        <mxCell id="bXwxF1vJaj6NDqh2uWlh-19" value="&lt;i&gt;N8&lt;/i&gt;" style="ellipse;whiteSpace=wrap;html=1;aspect=fixed;" vertex="1" parent="1">
          <mxGeometry x="510" y="520" width="40" height="40" as="geometry" />
        </mxCell>
      </root>
    </mxGraphModel>
  </diagram>
</mxfile>
